<svg width="22" height="28" viewBox="0 0 22 28" fill="none" xmlns="http://www.w3.org/2000/svg">
<path d="M16.75 4.96877C15.206 3.18557 13.4682 1.57984 11.5688 0.181275C11.4006 0.0634884 11.2003 0.000305176 10.995 0.000305176C10.7897 0.000305176 10.5894 0.0634884 10.4213 0.181275C8.52531 1.58042 6.7909 3.18613 5.25 4.96877C1.81375 8.91502 0 13.075 0 17C0 19.9174 1.15893 22.7153 3.22183 24.7782C5.28473 26.8411 8.08262 28 11 28C13.9174 28 16.7153 26.8411 18.7782 24.7782C20.8411 22.7153 22 19.9174 22 17C22 13.075 20.1862 8.91502 16.75 4.96877ZM11 26C8.61386 25.9974 6.32622 25.0483 4.63896 23.3611C2.95171 21.6738 2.00265 19.3862 2 17C2 9.84627 8.93375 3.87502 11 2.25002C13.0663 3.87502 20 9.84377 20 17C19.9974 19.3862 19.0483 21.6738 17.361 23.3611C15.6738 25.0483 13.3861 25.9974 11 26ZM17.9862 18.1675C17.7269 19.6159 17.0301 20.9501 15.9896 21.9904C14.949 23.0307 13.6147 23.7273 12.1663 23.9863C12.1113 23.9951 12.0557 23.9997 12 24C11.7492 24 11.5075 23.9056 11.323 23.7357C11.1384 23.5658 11.0245 23.3328 11.0037 23.0828C10.9829 22.8328 11.0569 22.5842 11.2108 22.3862C11.3648 22.1881 11.5876 22.0552 11.835 22.0138C13.9062 21.665 15.6637 19.9075 16.015 17.8325C16.0594 17.571 16.2059 17.3377 16.4223 17.1842C16.6387 17.0307 16.9072 16.9694 17.1688 17.0138C17.4303 17.0582 17.6635 17.2047 17.8171 17.4211C17.9706 17.6375 18.0319 17.906 17.9875 18.1675H17.9862Z" fill="#135E06"/>
</svg>
